<svg width="12" height="13" viewBox="0 0 12 13" fill="none" xmlns="http://www.w3.org/2000/svg">
<path d="M10.7311 0H4.42689C3.72517 0 3.15734 0.58435 3.15734 1.3065V4.97055L0.18747 7.98785C0.0984847 8.07842 0.0376511 8.19415 0.0126898 8.32036C-0.0122715 8.44657 -0.00023515 8.57757 0.0472713 8.69673C0.0947778 8.81589 0.175613 8.91783 0.279517 8.98963C0.383422 9.06143 0.505711 9.09985 0.630866 9.1V12.35C0.630866 12.5224 0.697412 12.6877 0.815863 12.8096C0.934315 12.9315 1.09497 13 1.26248 13H11.3684C11.5359 13 11.6966 12.9315 11.815 12.8096C11.9335 12.6877 12 12.5224 12 12.35V1.30585C12 0.58435 11.4328 0 10.7311 0ZM5.63455 8.52215V11.7H1.8941V8.0808L3.78075 6.16395L5.63455 8.1159V8.52215ZM6.94705 4.55H5.68381V3.25H6.94705V4.55ZM9.47353 9.75H8.21029V8.45H9.47353V9.75ZM9.47353 7.15H8.21029V5.85H9.47353V7.15ZM9.47353 4.55H8.21029V3.25H9.47353V4.55Z" fill="#656565"/>
<path d="M3 8H4V9H3V8Z" fill="#656565"/>
</svg>
