<svg width="13" height="13" viewBox="0 0 13 13" fill="none" xmlns="http://www.w3.org/2000/svg">
<path d="M11.6946 1.01591C12.1602 1.48155 12.1602 2.23649 11.6946 2.70212L2.70145 11.6952C2.23582 12.1609 1.48087 12.1609 1.01524 11.6952C0.549607 11.2296 0.549607 10.4747 1.01524 10.009L10.0084 1.01591C10.474 0.55028 11.2289 0.550279 11.6946 1.01591Z" fill="#838383"/>
<path d="M11.6946 11.6952C11.2289 12.1609 10.474 12.1609 10.0084 11.6952L1.01524 2.70212C0.549609 2.23649 0.549608 1.48155 1.01524 1.01591C1.48088 0.550278 2.23582 0.550279 2.70145 1.01591L11.6946 10.009C12.1602 10.4747 12.1602 11.2296 11.6946 11.6952Z" fill="#838383"/>
</svg>
