<svg width="13" height="13" viewBox="0 0 13 13" fill="none" xmlns="http://www.w3.org/2000/svg">
<path d="M12.3311 9.08931H3.24502C3.07289 9.08931 2.90781 9.02091 2.7861 8.89915C2.66439 8.7774 2.59601 8.61226 2.59601 8.44007C2.59601 8.26789 2.66439 8.10275 2.7861 7.98099C2.90781 7.85924 3.07289 7.79084 3.24502 7.79084H10.0206C10.4546 7.79086 10.8761 7.64586 11.2183 7.37885C11.5604 7.11184 11.8036 6.73813 11.9092 6.31707L12.9801 2.10353C13.0044 2.0077 13.0065 1.90759 12.9862 1.81083C12.966 1.71407 12.9239 1.62321 12.8632 1.54518C12.8001 1.46515 12.7191 1.40112 12.6266 1.35825C12.5341 1.31539 12.4329 1.29491 12.3311 1.29847H3.08925C2.95536 0.919611 2.7076 0.591453 2.37994 0.358988C2.05228 0.126522 1.66076 0.00112935 1.25907 0H0.649003C0.476877 0 0.3118 0.0684015 0.190089 0.190157C0.0683769 0.311912 0 0.477048 0 0.649236C0 0.821425 0.0683769 0.98656 0.190089 1.10832C0.3118 1.23007 0.476877 1.29847 0.649003 1.29847H1.25907C1.40732 1.29415 1.55258 1.34076 1.67067 1.43054C1.78875 1.52031 1.87254 1.64784 1.90807 1.79189L1.94701 2.10353L3.06978 6.49236C2.55341 6.51561 2.06741 6.74311 1.7187 7.12481C1.37 7.50651 1.18715 8.01116 1.21039 8.52772C1.23363 9.04428 1.46104 9.53046 1.84261 9.87929C2.22418 10.2281 2.72864 10.411 3.24502 10.3878H3.36184C3.2551 10.682 3.2208 10.9976 3.26184 11.3078C3.30289 11.6181 3.41807 11.9139 3.59763 12.1702C3.77719 12.4265 4.01585 12.6357 4.29338 12.7801C4.57092 12.9246 4.87917 13 5.19202 13C5.50488 13 5.81313 12.9246 6.09067 12.7801C6.3682 12.6357 6.60686 12.4265 6.78642 12.1702C6.96598 11.9139 7.08116 11.6181 7.12221 11.3078C7.16325 10.9976 7.12895 10.682 7.02221 10.3878H8.55386C8.44712 10.682 8.41282 10.9976 8.45387 11.3078C8.49491 11.6181 8.61009 11.9139 8.78966 12.1702C8.96922 12.4265 9.20787 12.6357 9.48541 12.7801C9.76295 12.9246 10.0712 13 10.384 13C10.6969 13 11.0052 12.9246 11.2827 12.7801C11.5602 12.6357 11.7989 12.4265 11.9784 12.1702C12.158 11.9139 12.2732 11.6181 12.3142 11.3078C12.3553 10.9976 12.321 10.682 12.2142 10.3878H12.3311C12.5032 10.3878 12.6683 10.3194 12.79 10.1976C12.9117 10.0759 12.9801 9.91073 12.9801 9.73855C12.9801 9.56636 12.9117 9.40122 12.79 9.27947C12.6683 9.15771 12.5032 9.08931 12.3311 9.08931ZM11.5003 2.59695L10.6501 5.99894C10.6146 6.14299 10.5308 6.27052 10.4127 6.3603C10.2947 6.45008 10.1494 6.49668 10.0011 6.49236H4.40024L3.42674 2.59695H11.5003ZM5.19202 11.6863C5.06366 11.6863 4.93819 11.6482 4.83146 11.5768C4.72473 11.5055 4.64155 11.4041 4.59242 11.2855C4.5433 11.1668 4.53045 11.0363 4.55549 10.9104C4.58053 10.7844 4.64235 10.6687 4.73311 10.5779C4.82387 10.4871 4.93952 10.4253 5.06541 10.4003C5.1913 10.3752 5.3218 10.3881 5.44039 10.4372C5.55898 10.4863 5.66034 10.5696 5.73165 10.6763C5.80296 10.7831 5.84103 10.9086 5.84103 11.037C5.84103 11.2092 5.77265 11.3743 5.65094 11.4961C5.52923 11.6179 5.36415 11.6863 5.19202 11.6863ZM10.384 11.6863C10.2557 11.6863 10.1302 11.6482 10.0235 11.5768C9.91675 11.5055 9.83357 11.4041 9.78445 11.2855C9.73533 11.1668 9.72248 11.0363 9.74752 10.9104C9.77256 10.7844 9.83437 10.6687 9.92513 10.5779C10.0159 10.4871 10.1315 10.4253 10.2574 10.4003C10.3833 10.3752 10.5138 10.3881 10.6324 10.4372C10.751 10.4863 10.8524 10.5696 10.9237 10.6763C10.995 10.7831 11.0331 10.9086 11.0331 11.037C11.0331 11.2092 10.9647 11.3743 10.843 11.4961C10.7213 11.6179 10.5562 11.6863 10.384 11.6863Z" fill="#2F89D2"/>
</svg>
