<svg width="27" height="27" viewBox="0 0 27 27" fill="none" xmlns="http://www.w3.org/2000/svg">
<path d="M25.6107 18.8778H6.73965C6.38215 18.8778 6.0393 18.7357 5.78652 18.4829C5.53373 18.23 5.39172 17.887 5.39172 17.5294C5.39172 17.1718 5.53373 16.8288 5.78652 16.5759C6.0393 16.323 6.38215 16.181 6.73965 16.181H20.812C21.7133 16.181 22.5888 15.8799 23.2995 15.3253C24.0101 14.7707 24.5152 13.9946 24.7345 13.1201L26.9586 4.36886C27.0091 4.16985 27.0135 3.96193 26.9714 3.76096C26.9294 3.55999 26.842 3.37128 26.716 3.20923C26.5849 3.04301 26.4165 2.91001 26.2245 2.82099C26.0325 2.73197 25.8222 2.68944 25.6107 2.69683H6.41614C6.13805 1.90996 5.62347 1.2284 4.94295 0.74559C4.26242 0.262777 3.44928 0.00234558 2.61498 0H1.34793C0.990436 0 0.647585 0.142065 0.394799 0.394941C0.142014 0.647818 0 0.990792 0 1.34841C0 1.70604 0.142014 2.04901 0.394799 2.30189C0.647585 2.55476 0.990436 2.69683 1.34793 2.69683H2.61498C2.9229 2.68785 3.22459 2.78465 3.46985 2.97111C3.7151 3.15757 3.88911 3.42244 3.96291 3.72162L4.04379 4.36886L6.37571 13.4841C5.30323 13.5324 4.29385 14.0049 3.56961 14.7977C2.84538 15.5905 2.46563 16.6386 2.51389 17.7114C2.56215 18.7843 3.03448 19.794 3.82696 20.5185C4.61944 21.243 5.66717 21.6229 6.73965 21.5746H6.98227C6.76059 22.1856 6.68935 22.8411 6.7746 23.4855C6.85985 24.1299 7.09907 24.7442 7.472 25.2765C7.84494 25.8088 8.3406 26.2433 8.91703 26.5434C9.49345 26.8434 10.1337 27 10.7834 27C11.4332 27 12.0734 26.8434 12.6498 26.5434C13.2263 26.2433 13.7219 25.8088 14.0949 25.2765C14.4678 24.7442 14.707 24.1299 14.7923 23.4855C14.8775 22.8411 14.8063 22.1856 14.5846 21.5746H17.7657C17.544 22.1856 17.4728 22.8411 17.558 23.4855C17.6433 24.1299 17.8825 24.7442 18.2554 25.2765C18.6284 25.8088 19.124 26.2433 19.7005 26.5434C20.2769 26.8434 20.9171 27 21.5669 27C22.2166 27 22.8569 26.8434 23.4333 26.5434C24.0097 26.2433 24.5054 25.8088 24.8783 25.2765C25.2512 24.7442 25.4905 24.1299 25.5757 23.4855C25.661 22.8411 25.5897 22.1856 25.368 21.5746H25.6107C25.9682 21.5746 26.311 21.4326 26.5638 21.1797C26.8166 20.9268 26.9586 20.5838 26.9586 20.2262C26.9586 19.8686 26.8166 19.5256 26.5638 19.2727C26.311 19.0199 25.9682 18.8778 25.6107 18.8778ZM23.8853 5.39366L22.1195 12.4593C22.0457 12.7585 21.8717 13.0234 21.6265 13.2099C21.3812 13.3963 21.0795 13.4931 20.7716 13.4841H9.13896L7.11707 5.39366H23.8853ZM10.7834 24.2715C10.5168 24.2715 10.2562 24.1924 10.0346 24.0442C9.8129 23.896 9.64013 23.6854 9.53811 23.4391C9.43609 23.1927 9.4094 22.9215 9.46141 22.66C9.51342 22.3984 9.6418 22.1581 9.83031 21.9696C10.0188 21.781 10.259 21.6526 10.5205 21.6005C10.7819 21.5485 11.053 21.5752 11.2993 21.6773C11.5456 21.7793 11.7561 21.9522 11.9042 22.1739C12.0523 22.3956 12.1314 22.6563 12.1314 22.923C12.1314 23.2807 11.9894 23.6236 11.7366 23.8765C11.4838 24.1294 11.1409 24.2715 10.7834 24.2715ZM21.5669 24.2715C21.3003 24.2715 21.0397 24.1924 20.818 24.0442C20.5963 23.896 20.4236 23.6854 20.3215 23.4391C20.2195 23.1927 20.1928 22.9215 20.2448 22.66C20.2969 22.3984 20.4252 22.1581 20.6137 21.9696C20.8023 21.781 21.0424 21.6526 21.3039 21.6005C21.5654 21.5485 21.8364 21.5752 22.0827 21.6773C22.329 21.7793 22.5395 21.9522 22.6876 22.1739C22.8357 22.3956 22.9148 22.6563 22.9148 22.923C22.9148 23.2807 22.7728 23.6236 22.52 23.8765C22.2672 24.1294 21.9244 24.2715 21.5669 24.2715Z" fill="#2F89D2"/>
</svg>
