<svg width="21" height="21" viewBox="0 0 21 21" fill="none" xmlns="http://www.w3.org/2000/svg">
<path d="M19.9194 14.6827H5.24195C4.9639 14.6827 4.69724 14.5722 4.50062 14.3756C4.30401 14.1789 4.19356 13.9121 4.19356 13.634C4.19356 13.3558 4.30401 13.0891 4.50062 12.8924C4.69724 12.6957 4.9639 12.5852 5.24195 12.5852H16.1871C16.8881 12.5852 17.5691 12.351 18.1218 11.9197C18.6745 11.4884 19.0674 10.8847 19.2379 10.2045L20.9678 3.398C21.0071 3.24321 21.0105 3.0815 20.9778 2.92519C20.9451 2.76888 20.8771 2.62211 20.7791 2.49606C20.6771 2.36679 20.5462 2.26334 20.3968 2.1941C20.2475 2.12487 20.0839 2.09178 19.9194 2.09753H4.99033C4.77404 1.48553 4.37381 0.955425 3.84451 0.579903C3.31522 0.204382 2.68277 0.00182434 2.03388 0H1.04839C0.770339 0 0.503677 0.110495 0.307066 0.307177C0.110455 0.503858 0 0.770616 0 1.04877C0 1.32692 0.110455 1.59367 0.307066 1.79036C0.503677 1.98704 0.770339 2.09753 1.04839 2.09753H2.03388C2.27336 2.09055 2.50802 2.16584 2.69877 2.31087C2.88952 2.45589 3.02487 2.6619 3.08227 2.8946L3.14517 3.398L4.95888 10.4877C4.12473 10.5252 3.33966 10.8927 2.77637 11.5093C2.21308 12.1259 1.91771 12.9411 1.95525 13.7755C1.99278 14.61 2.36015 15.3954 2.97652 15.9588C3.5929 16.5223 4.4078 16.8178 5.24195 16.7803H5.43066C5.25823 17.2555 5.20283 17.7653 5.26913 18.2665C5.33544 18.7677 5.5215 19.2455 5.81156 19.6595C6.10162 20.0735 6.48714 20.4115 6.93547 20.6448C7.3838 20.8782 7.88174 21 8.38712 21C8.8925 21 9.39044 20.8782 9.83877 20.6448C10.2871 20.4115 10.6726 20.0735 10.9627 19.6595C11.2527 19.2455 11.4388 18.7677 11.5051 18.2665C11.5714 17.7653 11.516 17.2555 11.3436 16.7803H13.8178C13.6454 17.2555 13.5899 17.7653 13.6562 18.2665C13.7226 18.7677 13.9086 19.2455 14.1987 19.6595C14.4887 20.0735 14.8743 20.4115 15.3226 20.6448C15.7709 20.8782 16.2689 21 16.7742 21C17.2796 21 17.7776 20.8782 18.2259 20.6448C18.6742 20.4115 19.0597 20.0735 19.3498 19.6595C19.6399 19.2455 19.8259 18.7677 19.8922 18.2665C19.9585 17.7653 19.9031 17.2555 19.7307 16.7803H19.9194C20.1975 16.7803 20.4641 16.6698 20.6607 16.4731C20.8573 16.2764 20.9678 16.0096 20.9678 15.7315C20.9678 15.4533 20.8573 15.1866 20.6607 14.9899C20.4641 14.7932 20.1975 14.6827 19.9194 14.6827ZM18.5775 4.19507L17.2041 9.6906C17.1467 9.9233 17.0113 10.1293 16.8206 10.2743C16.6298 10.4194 16.3952 10.4946 16.1557 10.4877H7.10808L5.5355 4.19507H18.5775ZM8.38712 18.8778C8.17976 18.8778 7.97707 18.8163 7.80466 18.701C7.63226 18.5858 7.49788 18.422 7.41853 18.2304C7.33918 18.0387 7.31842 17.8279 7.35887 17.6244C7.39932 17.421 7.49917 17.2341 7.64579 17.0874C7.79241 16.9408 7.97922 16.8409 8.18259 16.8004C8.38595 16.7599 8.59675 16.7807 8.78832 16.8601C8.97989 16.9395 9.14362 17.0739 9.25882 17.2464C9.37402 17.4188 9.43551 17.6216 9.43551 17.829C9.43551 18.1072 9.32505 18.3739 9.12844 18.5706C8.93183 18.7673 8.66517 18.8778 8.38712 18.8778ZM16.7742 18.8778C16.5669 18.8778 16.3642 18.8163 16.1918 18.701C16.0194 18.5858 15.885 18.422 15.8056 18.2304C15.7263 18.0387 15.7055 17.8279 15.746 17.6244C15.7864 17.421 15.8863 17.2341 16.0329 17.0874C16.1795 16.9408 16.3663 16.8409 16.5697 16.8004C16.7731 16.7599 16.9839 16.7807 17.1754 16.8601C17.367 16.9395 17.5307 17.0739 17.6459 17.2464C17.7611 17.4188 17.8226 17.6216 17.8226 17.829C17.8226 18.1072 17.7122 18.3739 17.5156 18.5706C17.3189 18.7673 17.0523 18.8778 16.7742 18.8778Z" fill="white"/>
</svg>
