<svg width="10" height="7" viewBox="0 0 10 7" fill="none" xmlns="http://www.w3.org/2000/svg">
<path d="M1.44708 1.04035C1.15418 0.747455 0.679311 0.747455 0.386418 1.04035C0.0935248 1.33324 0.0935248 1.80812 0.386418 2.10101L1.44708 1.04035ZM9.44708 2.10101C9.73997 1.80812 9.73997 1.33324 9.44708 1.04035C9.15418 0.747455 8.67931 0.747455 8.38642 1.04035L9.44708 2.10101ZM4.91675 5.57068L4.38642 6.10101C4.52707 6.24166 4.71784 6.32068 4.91675 6.32068C5.11566 6.32068 5.30643 6.24166 5.44708 6.10101L4.91675 5.57068ZM0.386418 2.10101L4.38642 6.10101L5.44708 5.04035L1.44708 1.04035L0.386418 2.10101ZM5.44708 6.10101L9.44708 2.10101L8.38642 1.04035L4.38642 5.04035L5.44708 6.10101Z" fill="#2F89D2"/>
</svg>
