<svg width="15" height="13" viewBox="0 0 15 13" fill="none" xmlns="http://www.w3.org/2000/svg">
<path d="M14.4643 1.18182H11.7857V0.147727C11.7857 0.0664773 11.7254 0 11.6518 0H10.7143C10.6406 0 10.5804 0.0664773 10.5804 0.147727V1.18182H8.10268V0.147727C8.10268 0.0664773 8.04241 0 7.96875 0H7.03125C6.95759 0 6.89732 0.0664773 6.89732 0.147727V1.18182H4.41964V0.147727C4.41964 0.0664773 4.35938 0 4.28571 0H3.34821C3.27455 0 3.21429 0.0664773 3.21429 0.147727V1.18182H0.535714C0.239397 1.18182 0 1.44588 0 1.77273V12.4091C0 12.7359 0.239397 13 0.535714 13H14.4643C14.7606 13 15 12.7359 15 12.4091V1.77273C15 1.44588 14.7606 1.18182 14.4643 1.18182ZM9.99442 10.6364H9.25949C9.18917 10.6364 9.13225 10.5754 9.12723 10.4979C9.06362 9.56349 8.35714 8.8267 7.5 8.8267C6.64286 8.8267 5.93638 9.56534 5.87277 10.4979C5.86774 10.5754 5.81083 10.6364 5.74051 10.6364H5.00558C4.98741 10.6364 4.96943 10.6323 4.95273 10.6245C4.93603 10.6166 4.92096 10.605 4.90843 10.5905C4.8959 10.576 4.88618 10.5588 4.87986 10.5401C4.87354 10.5213 4.87074 10.5013 4.87165 10.4812C4.91853 9.49702 5.40737 8.6402 6.12054 8.1527C5.80603 7.77137 5.63225 7.27404 5.63337 6.75852C5.63337 5.61548 6.46875 4.69034 7.49833 4.69034C8.5279 4.69034 9.36328 5.61548 9.36328 6.75852C9.36328 7.29588 9.17913 7.78338 8.87612 8.1527C9.59096 8.64205 10.0781 9.49702 10.125 10.4812C10.1317 10.5662 10.0714 10.6364 9.99442 10.6364ZM7.5 5.7983C7.02288 5.7983 6.63449 6.22855 6.63449 6.75852C6.63449 7.2885 7.02288 7.71875 7.5 7.71875C7.97712 7.71875 8.36551 7.2885 8.36551 6.75852C8.36551 6.22855 7.97712 5.7983 7.5 5.7983Z" fill="#656565"/>
</svg>
