<svg width="18" height="13" viewBox="0 0 18 13" fill="none" xmlns="http://www.w3.org/2000/svg">
<path d="M1.63636 0C1.20237 0 0.786158 0.171205 0.47928 0.475951C0.172402 0.780698 0 1.19402 0 1.625V10.5625H1.63636C1.63636 11.209 1.89497 11.829 2.35528 12.2861C2.8156 12.7432 3.43992 13 4.09091 13C4.7419 13 5.36622 12.7432 5.82654 12.2861C6.28685 11.829 6.54545 11.209 6.54545 10.5625H11.4545C11.4545 11.209 11.7132 11.829 12.1735 12.2861C12.6338 12.7432 13.2581 13 13.9091 13C14.5601 13 15.1844 12.7432 15.6447 12.2861C16.105 11.829 16.3636 11.209 16.3636 10.5625H18V6.5L15.5455 3.25H13.0909V0H1.63636ZM13.0909 4.46875H15.1364L16.7482 6.5H13.0909V4.46875ZM4.09091 9.34375C4.4164 9.34375 4.72856 9.47215 4.95872 9.70071C5.18888 9.92927 5.31818 10.2393 5.31818 10.5625C5.31818 10.8857 5.18888 11.1957 4.95872 11.4243C4.72856 11.6528 4.4164 11.7812 4.09091 11.7812C3.76542 11.7812 3.45325 11.6528 3.2231 11.4243C2.99294 11.1957 2.86364 10.8857 2.86364 10.5625C2.86364 10.2393 2.99294 9.92927 3.2231 9.70071C3.45325 9.47215 3.76542 9.34375 4.09091 9.34375ZM13.9091 9.34375C14.2346 9.34375 14.5467 9.47215 14.7769 9.70071C15.0071 9.92927 15.1364 10.2393 15.1364 10.5625C15.1364 10.8857 15.0071 11.1957 14.7769 11.4243C14.5467 11.6528 14.2346 11.7812 13.9091 11.7812C13.5836 11.7812 13.2714 11.6528 13.0413 11.4243C12.8111 11.1957 12.6818 10.8857 12.6818 10.5625C12.6818 10.2393 12.8111 9.92927 13.0413 9.70071C13.2714 9.47215 13.5836 9.34375 13.9091 9.34375Z" fill="#656565"/>
</svg>
