<svg width="18" height="11" viewBox="0 0 18 11" fill="none" xmlns="http://www.w3.org/2000/svg">
<path d="M12.8843 9.87841L3.91506 10.0781C2.5675 10.1077 1.53726 9.78852 0.849536 9.12911C-0.101971 8.21579 -0.012693 6.97179 0.0160516 6.7327L0.131276 3.74686C0.174476 2.6127 0.599262 1.71604 1.39649 1.08482C2.51621 0.19849 3.96715 0.18176 4.22392 0.192678C4.22392 0.192678 12.9588 0.000834858 12.963 0.000166567C13.3395 -0.00785065 13.628 0.274554 13.6142 0.629273C13.6009 0.984427 13.2881 1.27996 12.9125 1.28808C12.9068 1.28897 4.09874 1.48259 4.09874 1.48259C4.09311 1.48348 3.06991 1.45441 2.36809 2.01705C1.90654 2.3869 1.65821 2.95708 1.62817 3.7133L1.50648 6.78431C1.50508 6.79042 1.39499 7.67044 1.99989 8.24333C2.40322 8.62435 3.06391 8.8052 3.96451 8.78497L12.9411 8.58654C12.9649 8.58548 14.7938 8.54481 15.8147 7.67876C16.2505 7.31053 16.4732 6.84401 16.4963 6.25179C16.5718 4.27298 14.7951 4.0397 12.8653 4.08234C11.497 4.11177 7.52556 4.1306 7.35245 4.13172C7.35245 4.13172 4.86525 4.08758 4.82238 5.17508C4.79636 5.87644 5.66245 6.16564 7.45292 6.12663L12.757 6.01874C13.1228 6.02003 13.4055 6.2982 13.3917 6.64703C13.3793 6.99641 13.0737 7.2881 12.7074 7.30481L7.40259 7.41771C5.84264 7.45192 3.23223 7.51264 3.32368 5.14759C3.34711 4.53618 3.60919 3.98689 4.1403 3.61365C5.21183 2.86006 7.03928 2.8255 7.37372 2.84499C7.74989 2.84243 11.6244 2.74324 12.9181 2.71385C16.381 2.6373 18.0875 3.86843 17.9965 6.21942C17.9591 7.16156 17.5684 7.95518 16.8308 8.57671C15.3471 9.83169 12.9838 9.87666 12.8843 9.87841Z" fill="white"/>
</svg>
