<svg width="31" height="33" viewBox="0 0 31 33" fill="none" xmlns="http://www.w3.org/2000/svg">
<path d="M28.0624 0.3125H3.75C3.13669 0.3125 2.54849 0.556138 2.11482 0.989815C1.68114 1.42349 1.4375 2.01169 1.4375 2.625V7.25H2.52724e-05V9.5625H1.4375V15.3438H2.52724e-05V17.6562H1.4375V23.4375H2.52724e-05V25.75H1.4375V30.375C1.4375 30.9883 1.68114 31.5765 2.11482 32.0102C2.54849 32.4439 3.13669 32.6875 3.75 32.6875H28.0624C28.6757 32.6875 29.2639 32.4439 29.6976 32.0102C30.1313 31.5765 30.3749 30.9883 30.3749 30.375V2.625C30.3749 2.01169 30.1313 1.42349 29.6976 0.989815C29.2639 0.556138 28.6757 0.3125 28.0624 0.3125ZM28.0624 30.375H3.75V25.75H5V23.4375H3.75V17.6562H5V15.3438H3.75V9.5625H5V7.25H3.75V2.625H28.0624V30.375Z" fill="white"/>
<path d="M14.0218 10.875L20.9039 10.875V17.375H16.6026L14.8821 15.75L13.1615 15.75L13.1615 11.6875L14.0218 10.875ZM13.1615 6V7.625L15.7423 7.625V9.25L13.1615 9.25L11.441 10.875L11.441 13.3125H9.72051L9.72051 10.875H8L8 17.375H9.72051V14.9375H11.441V17.375H14.0218L15.7423 19H22.6244V14.9375H23.7714V18.1875L25 18.1875L25 10.0625H23.7714V13.3125H22.6244V9.25H17.4628V7.625H20.0436V6L13.1615 6Z" fill="white"/>
<rect x="7" y="22" width="18" height="2" fill="white"/>
<rect x="7" y="26" width="18" height="2" fill="white"/>
</svg>
