<svg width="15" height="15" viewBox="0 0 15 15" fill="none" xmlns="http://www.w3.org/2000/svg">
<path d="M1.25 2.5H13.75C14.0815 2.5 14.3995 2.3683 14.6339 2.13388C14.8683 1.89946 15 1.58152 15 1.25C15 0.918479 14.8683 0.600537 14.6339 0.366117C14.3995 0.131696 14.0815 0 13.75 0H1.25C0.918479 0 0.600537 0.131696 0.366117 0.366117C0.131696 0.600537 0 0.918479 0 1.25C0 1.58152 0.131696 1.89946 0.366117 2.13388C0.600537 2.3683 0.918479 2.5 1.25 2.5ZM13.75 12.5H1.25C0.918479 12.5 0.600537 12.6317 0.366117 12.8661C0.131696 13.1005 0 13.4185 0 13.75C0 14.0815 0.131696 14.3995 0.366117 14.6339C0.600537 14.8683 0.918479 15 1.25 15H13.75C14.0815 15 14.3995 14.8683 14.6339 14.6339C14.8683 14.3995 15 14.0815 15 13.75C15 13.4185 14.8683 13.1005 14.6339 12.8661C14.3995 12.6317 14.0815 12.5 13.75 12.5ZM13.75 6.25H1.25C0.918479 6.25 0.600537 6.3817 0.366117 6.61612C0.131696 6.85054 0 7.16848 0 7.5C0 7.83152 0.131696 8.14946 0.366117 8.38388C0.600537 8.6183 0.918479 8.75 1.25 8.75H13.75C14.0815 8.75 14.3995 8.6183 14.6339 8.38388C14.8683 8.14946 15 7.83152 15 7.5C15 7.16848 14.8683 6.85054 14.6339 6.61612C14.3995 6.3817 14.0815 6.25 13.75 6.25Z" fill="white"/>
</svg>
