<svg width="12" height="12" viewBox="0 0 12 12" fill="none" xmlns="http://www.w3.org/2000/svg">
<path d="M11.8333 9.97842L10.1414 11.6567C9.89165 11.9128 9.56062 11.9996 9.23823 12C7.81252 11.9573 6.4649 11.257 5.35842 10.5378C3.5422 9.21655 1.87574 7.5782 0.829842 5.59832C0.428702 4.76809 -0.0419782 3.70878 0.0029918 2.78209C0.0070018 2.43349 0.100942 2.09136 0.346452 1.86666L2.03831 0.175649C2.38963 -0.123181 2.72938 -0.0198614 2.9542 0.328219L4.31531 2.90924C4.45857 3.21501 4.37639 3.54263 4.16265 3.76112L3.53933 4.38412C3.50085 4.43683 3.47635 4.49683 3.47573 4.56213C3.71475 5.48735 4.43886 6.34012 5.07854 6.92699C5.71821 7.51387 6.40579 8.30897 7.29831 8.4972C7.40863 8.52797 7.54376 8.53878 7.62269 8.46541L8.34779 7.72798C8.59775 7.53853 8.95865 7.44593 9.2255 7.60084H9.23822L11.6933 9.05027C12.0537 9.27619 12.0913 9.71279 11.8333 9.97842Z" fill="#838383"/>
</svg>
