<svg width="24" height="24" viewBox="0 0 24 24" fill="none" xmlns="http://www.w3.org/2000/svg">
<path id="Vector" d="M21.0253 13.2382C20.7603 13.2382 20.4833 13.1537 20.2184 13.0933C19.6818 12.9747 19.1546 12.8173 18.6407 12.6222C18.082 12.4184 17.4679 12.429 16.9165 12.6519C16.3651 12.8749 15.9154 13.2945 15.654 13.8301L15.389 14.3736C14.216 13.7191 13.1381 12.9063 12.1855 11.9579C11.2399 11.0025 10.4294 9.92151 9.7769 8.74508L10.2827 8.40689C10.8167 8.14469 11.2351 7.6937 11.4574 7.14071C11.6797 6.58772 11.6903 5.9718 11.487 5.41147C11.2958 4.89503 11.1389 4.36645 11.0174 3.82921C10.9571 3.56349 10.909 3.28569 10.8728 3.00788C10.7266 2.15711 10.2823 1.38666 9.61988 0.835284C8.9575 0.283906 8.12059 -0.0121675 7.25986 0.000383248H3.64689C3.12787 -0.00450429 2.61388 0.102824 2.13993 0.31506C1.66598 0.527297 1.2432 0.839459 0.900349 1.2303C0.557503 1.62113 0.302649 2.08147 0.153136 2.57997C0.00362344 3.07846 -0.0370371 3.60342 0.0339224 4.11909C0.675512 9.17916 2.97973 13.8806 6.58261 17.4809C10.1855 21.0811 14.8817 23.375 19.9293 24H20.387C21.2751 24.0013 22.1325 23.6745 22.7956 23.082C23.1766 22.7403 23.481 22.3213 23.6886 21.8529C23.8962 21.3844 24.0023 20.8771 24 20.3644V16.7409C23.9852 15.9019 23.6806 15.0941 23.1381 14.4553C22.5956 13.8165 21.8488 13.3863 21.0253 13.2382ZM21.6274 20.4852C21.6272 20.6567 21.5906 20.8262 21.52 20.9824C21.4494 21.1386 21.3464 21.2779 21.218 21.3911C21.0834 21.5076 20.9261 21.5947 20.756 21.6466C20.5859 21.6986 20.4069 21.7144 20.2304 21.693C15.7201 21.113 11.5307 19.0436 8.32294 15.8112C5.1152 12.5789 3.07172 8.36744 2.51483 3.84129C2.49566 3.66436 2.51246 3.48538 2.56421 3.31515C2.61596 3.14491 2.70158 2.98697 2.81591 2.85087C2.92877 2.72203 3.06769 2.61877 3.22343 2.54796C3.37917 2.47715 3.54816 2.44042 3.71915 2.4402H7.33212C7.61218 2.43395 7.88566 2.52581 8.10547 2.69997C8.32529 2.87413 8.47769 3.11969 8.53645 3.39439C8.58462 3.72453 8.64484 4.05064 8.7171 4.37273C8.85622 5.00943 9.04137 5.63513 9.27108 6.24487L7.58503 7.02996C7.44087 7.0963 7.31119 7.19054 7.20345 7.30728C7.09571 7.42401 7.01201 7.56094 6.95718 7.71021C6.90235 7.85947 6.87746 8.01813 6.88393 8.17707C6.89041 8.33601 6.92812 8.4921 6.99491 8.63638C8.72818 12.3598 11.7125 15.3529 15.4252 17.0912C15.7184 17.212 16.0473 17.212 16.3405 17.0912C16.4907 17.0373 16.6287 16.9541 16.7465 16.8462C16.8644 16.7384 16.9597 16.6082 17.0269 16.4631L17.7736 14.7722C18.3962 14.9955 19.0316 15.181 19.6764 15.3278C19.9976 15.4002 20.3228 15.4606 20.6519 15.5089C20.9258 15.5679 21.1707 15.7207 21.3443 15.9412C21.518 16.1616 21.6096 16.4359 21.6034 16.7168L21.6274 20.4852Z" fill="#2F89D2"/>
</svg>
