<svg width="8" height="12" viewBox="0 0 8 12" fill="none" xmlns="http://www.w3.org/2000/svg">
<path d="M4 0C1.7904 0 0 1.6728 0 3.74484C0 7.32758 4 12 4 12C4 12 8 7.32683 8 3.74484C8 1.67355 6.2096 0 4 0ZM4 5.81689C3.42713 5.81689 2.87773 5.6034 2.47265 5.22341C2.06757 4.84341 1.84 4.32802 1.84 3.79062C1.84 3.25322 2.06757 2.73783 2.47265 2.35783C2.87773 1.97783 3.42713 1.76435 4 1.76435C4.57287 1.76435 5.12227 1.97783 5.52735 2.35783C5.93243 2.73783 6.16 3.25322 6.16 3.79062C6.16 4.32802 5.93243 4.84341 5.52735 5.22341C5.12227 5.6034 4.57287 5.81689 4 5.81689Z" fill="white"/>
</svg>
