<svg width="15" height="15" viewBox="0 0 15 15" fill="none" xmlns="http://www.w3.org/2000/svg">
<g clip-path="url(#clip0)">
<path d="M7.5 0C3.35826 0 0 3.35826 0 7.5C0 11.6417 3.35826 15 7.5 15C11.6417 15 15 11.6417 15 7.5C15 3.35826 11.6417 0 7.5 0ZM7.5 13.7277C4.06138 13.7277 1.27232 10.9386 1.27232 7.5C1.27232 4.06138 4.06138 1.27232 7.5 1.27232C10.9386 1.27232 13.7277 4.06138 13.7277 7.5C13.7277 10.9386 10.9386 13.7277 7.5 13.7277Z" fill="#838383"/>
<path d="M9.36987 4.22653C8.86764 3.78624 8.20469 3.54517 7.50157 3.54517C6.79844 3.54517 6.1355 3.78791 5.63327 4.22653C5.11094 4.68356 4.823 5.29796 4.823 5.95588V6.08311C4.823 6.15677 4.88327 6.21704 4.95693 6.21704H5.7605C5.83416 6.21704 5.89443 6.15677 5.89443 6.08311V5.95588C5.89443 5.2176 6.61597 4.61659 7.50157 4.61659C8.38717 4.61659 9.10871 5.2176 9.10871 5.95588C9.10871 6.47653 8.74041 6.95365 8.16954 7.17296C7.81463 7.30856 7.51329 7.54628 7.29733 7.85767C7.07802 8.17575 6.96418 8.55744 6.96418 8.94416V9.3041C6.96418 9.37776 7.02445 9.43802 7.09811 9.43802H7.90168C7.97534 9.43802 8.03561 9.37776 8.03561 9.3041V8.92407C8.03648 8.76155 8.08629 8.60307 8.17857 8.46928C8.27085 8.33549 8.4013 8.23262 8.55291 8.17407C9.54063 7.79405 10.1785 6.92351 10.1785 5.95588C10.1801 5.29796 9.89219 4.68356 9.36987 4.22653ZM6.83193 11.1791C6.83193 11.3567 6.90248 11.527 7.02806 11.6526C7.15364 11.7782 7.32397 11.8487 7.50157 11.8487C7.67917 11.8487 7.8495 11.7782 7.97508 11.6526C8.10066 11.527 8.17121 11.3567 8.17121 11.1791C8.17121 11.0015 8.10066 10.8312 7.97508 10.7056C7.8495 10.58 7.67917 10.5095 7.50157 10.5095C7.32397 10.5095 7.15364 10.58 7.02806 10.7056C6.90248 10.8312 6.83193 11.0015 6.83193 11.1791Z" fill="#838383"/>
</g>
<defs>
<clipPath id="clip0">
<rect width="15" height="15" fill="white"/>
</clipPath>
</defs>
</svg>
