<svg width="13" height="13" viewBox="0 0 13 13" fill="none" xmlns="http://www.w3.org/2000/svg">
<path fill-rule="evenodd" clip-rule="evenodd" d="M3.52452 5.04568C3.50211 4.74807 3.56052 4.44994 3.69365 4.18259C3.73421 4.07607 3.79058 3.97622 3.86089 3.88638C3.98639 3.71725 4.15408 3.58373 4.34733 3.49906C4.34733 3.49906 4.92169 3.44288 4.97139 3.51981C5.23755 3.98016 5.46022 4.46414 5.63653 4.96552C5.72445 5.29343 5.26287 5.66771 5.26287 5.66771C5.26287 5.66771 4.97044 5.81624 5.26287 6.18404C5.48076 6.45854 5.85156 6.93689 6.07423 7.1135C6.30945 7.30527 6.55968 7.478 6.82253 7.63003C7.3663 7.93042 7.4676 7.89843 7.4676 7.89843C7.4676 7.89843 7.56794 7.93928 7.84126 7.56805C7.98748 7.37096 8.14708 7.13959 8.29903 7.09294C8.47487 7.03933 9.89498 7.85187 9.8386 7.79513C9.93799 7.89501 9.85962 8.2152 9.85962 8.2152C9.85962 8.2152 9.89021 8.57339 9.34931 8.98642C8.99284 9.25883 8.40318 9.32366 8.40318 9.32366C8.03192 9.29721 7.66702 9.2137 7.32138 9.07611C6.74511 8.8597 6.13634 8.67756 5.346 7.96089C4.79697 7.4642 4.31999 6.8938 3.92876 6.26612C3.51305 5.55193 3.52452 5.04568 3.52452 5.04568ZM6.6247 12.7108C5.52279 12.7124 4.43936 12.4288 3.48054 11.8878L0 13L1.14393 9.61368C0.422032 8.40919 0.120441 7.00058 0.286164 5.60744C0.451886 4.21431 1.0756 2.91496 2.0601 1.91195C3.0446 0.908943 4.33454 0.258654 5.7288 0.062464C7.12307 -0.133726 8.54333 0.135208 9.76814 0.82734C10.9929 1.51947 11.9535 2.5959 12.5 3.88882C13.0465 5.18173 13.1482 6.61847 12.7894 7.97503C12.4305 9.33159 11.6313 10.5317 10.5162 11.3884C9.40107 12.245 8.0328 12.71 6.6247 12.7108ZM6.61417 1.08238C5.63488 1.07875 4.67355 1.34423 3.83588 1.84964C2.9982 2.35504 2.31662 3.08078 1.8661 3.94708C1.41557 4.81337 1.21354 5.78666 1.28222 6.75993C1.3509 7.7332 1.68763 8.66875 2.25539 9.46372L1.74792 10.9966L1.74983 10.9981L1.6017 11.4304L2.46276 11.1757C2.46138 11.1741 2.45977 11.1727 2.45798 11.1715L3.63919 10.8012C4.33079 11.2666 5.12235 11.5639 5.95025 11.6691C6.77814 11.7744 7.61927 11.6846 8.406 11.407C9.19274 11.1295 9.90312 10.6719 10.4801 10.071C11.057 9.47015 11.4844 8.74281 11.7278 7.94747C11.9713 7.15212 12.024 6.31096 11.8819 5.49161C11.7397 4.67226 11.4065 3.89758 10.9091 3.22985C10.4117 2.56212 9.76403 2.01998 9.01809 1.64701C8.27215 1.27404 7.44878 1.08065 6.61417 1.08238Z" fill="#838383"/>
</svg>
