<svg width="189" height="26" viewBox="0 0 189 26" fill="none" xmlns="http://www.w3.org/2000/svg">
<g clip-path="url(#clip0)">
<path d="M24.9798 16.3037L23.0792 14.6787C23.1691 14.1273 23.2156 13.5644 23.2156 13.0015C23.2156 12.4385 23.1691 11.8756 23.0792 11.3242L24.9798 9.69922C25.1232 9.57649 25.2258 9.41303 25.274 9.23058C25.3222 9.04812 25.3137 8.85531 25.2497 8.67779L25.2236 8.60234C24.7003 7.13992 23.9168 5.78423 22.9109 4.60078L22.8586 4.53984C22.7366 4.39636 22.574 4.29321 22.3921 4.244C22.2103 4.19479 22.0179 4.20182 21.8401 4.26417L19.481 5.10279C18.6104 4.38895 17.6383 3.826 16.5879 3.43136L16.1323 0.964844C16.0979 0.779252 16.0079 0.608512 15.8742 0.475306C15.7405 0.342101 15.5694 0.252736 15.3836 0.219085L15.3053 0.204576C13.7935 -0.068192 12.2033 -0.068192 10.6915 0.204576L10.6131 0.219085C10.4274 0.252736 10.2563 0.342101 10.1226 0.475306C9.98885 0.608512 9.89882 0.779252 9.86444 0.964844L9.40596 3.44297C8.3639 3.83769 7.39348 4.40034 6.5332 5.10859L4.15663 4.26417C3.97894 4.20133 3.78634 4.19404 3.60441 4.24328C3.42248 4.29252 3.25984 4.39596 3.13811 4.53984L3.08587 4.60078C2.08112 5.78507 1.29772 7.14053 0.77315 8.60234L0.747034 8.67779C0.616454 9.04051 0.72382 9.44676 1.0169 9.69922L2.94078 11.3416C2.85083 11.8872 2.8073 12.4443 2.8073 12.9985C2.8073 13.5557 2.85083 14.1128 2.94078 14.6555L1.0169 16.2979C0.87354 16.4206 0.770935 16.5841 0.722729 16.7665C0.674523 16.949 0.683001 17.1418 0.747034 17.3193L0.77315 17.3948C1.29837 18.8573 2.07605 20.2066 3.08587 21.3963L3.13811 21.4573C3.26014 21.6007 3.42278 21.7039 3.6046 21.7531C3.78642 21.8023 3.97889 21.7953 4.15663 21.7329L6.5332 20.8885C7.39793 21.5994 8.36422 22.1624 9.40596 22.5541L9.86444 25.0323C9.89882 25.2178 9.98885 25.3886 10.1226 25.5218C10.2563 25.655 10.4274 25.7444 10.6131 25.778L10.6915 25.7925C12.2172 26.0668 13.7796 26.0668 15.3053 25.7925L15.3836 25.778C15.5694 25.7444 15.7405 25.655 15.8742 25.5218C16.0079 25.3886 16.0979 25.2178 16.1323 25.0323L16.5879 22.5657C17.6379 22.1721 18.6155 21.6073 19.481 20.8943L21.8401 21.7329C22.0178 21.7958 22.2104 21.8031 22.3923 21.7538C22.5743 21.7046 22.7369 21.6011 22.8586 21.4573L22.9109 21.3963C23.9207 20.2037 24.6984 18.8573 25.2236 17.3948L25.2497 17.3193C25.3803 16.9624 25.2729 16.5561 24.9798 16.3037ZM21.0189 11.6666C21.0915 12.1048 21.1292 12.5546 21.1292 13.0044C21.1292 13.4541 21.0915 13.9039 21.0189 14.3421L20.8274 15.5057L22.995 17.3599C22.6664 18.117 22.2516 18.8336 21.7589 19.4956L19.066 18.541L18.1548 19.2896C17.4613 19.8584 16.6894 20.3052 15.8537 20.6186L14.7482 21.0336L14.2287 23.8483C13.4092 23.9412 12.5818 23.9412 11.7622 23.8483L11.2428 21.0278L10.1459 20.607C9.31891 20.2936 8.54994 19.8468 7.86221 19.2809L6.95105 18.5294L4.24078 19.4927C3.74748 18.8282 3.33543 18.1115 3.00462 17.357L5.19547 15.4854L5.00686 14.3247C4.93721 13.8923 4.89949 13.4454 4.89949 13.0044C4.89949 12.5604 4.93431 12.1164 5.00686 11.684L5.19547 10.5233L3.00462 8.65167C3.33253 7.89431 3.74748 7.18047 4.24078 6.51596L6.95105 7.47935L7.86221 6.72779C8.54994 6.16194 9.31891 5.71507 10.1459 5.40167L11.2457 4.98672L11.7651 2.16618C12.5805 2.07333 13.4133 2.07333 14.2316 2.16618L14.7511 4.98092L15.8566 5.39587C16.6894 5.70926 17.4642 6.15614 18.1577 6.72489L19.0689 7.47355L21.7618 6.51886C22.2551 7.18337 22.6671 7.90011 22.9979 8.65458L20.8303 10.5088L21.0189 11.6666ZM13.0013 7.60703C10.1807 7.60703 7.89413 9.89364 7.89413 12.7142C7.89413 15.5347 10.1807 17.8213 13.0013 17.8213C15.8218 17.8213 18.1084 15.5347 18.1084 12.7142C18.1084 9.89364 15.8218 7.60703 13.0013 7.60703ZM15.2995 15.0124C14.9981 15.3147 14.6398 15.5544 14.2454 15.7177C13.851 15.8811 13.4282 15.9648 13.0013 15.9642C12.1336 15.9642 11.3182 15.6247 10.7031 15.0124C10.4008 14.711 10.161 14.3527 9.9977 13.9583C9.83436 13.5639 9.75061 13.1411 9.75128 12.7142C9.75128 11.8465 10.0908 11.0311 10.7031 10.416C11.3182 9.80078 12.1336 9.46417 13.0013 9.46417C13.8689 9.46417 14.6843 9.80078 15.2995 10.416C15.6018 10.7174 15.8415 11.0756 16.0048 11.47C16.1682 11.8645 16.2519 12.2873 16.2513 12.7142C16.2513 13.5818 15.9118 14.3972 15.2995 15.0124Z" fill="#E53E3E"/>
</g>
<path d="M44.536 11.44H40.104V18.928C40.104 19.0453 40.0614 19.1467 39.976 19.232C39.8907 19.3173 39.7894 19.36 39.672 19.36H36.472C36.3547 19.36 36.2534 19.3173 36.168 19.232C36.0827 19.1467 36.04 19.0453 36.04 18.928V8.592C36.04 8.47467 36.0827 8.37333 36.168 8.288C36.2534 8.20267 36.3547 8.16 36.472 8.16H44.536C44.6534 8.16 44.7547 8.20267 44.84 8.288C44.9254 8.37333 44.968 8.47467 44.968 8.592V11.008C44.968 11.1253 44.9254 11.2267 44.84 11.312C44.7547 11.3973 44.6534 11.44 44.536 11.44Z" fill="#262626"/>
<path d="M46.7533 8.16H51.5213C53.0573 8.16 54.2573 8.49067 55.1213 9.152C55.9853 9.81333 56.4173 10.7893 56.4173 12.08C56.4173 13.3707 55.9853 14.3253 55.1213 14.944C54.268 15.5627 53.068 15.872 51.5213 15.872H50.4813V18.928C50.4813 19.0453 50.4386 19.1467 50.3533 19.232C50.268 19.3173 50.1666 19.36 50.0493 19.36H46.7533C46.636 19.36 46.5346 19.3173 46.4493 19.232C46.364 19.1467 46.3213 19.0453 46.3213 18.928V8.592C46.3213 8.47467 46.364 8.37333 46.4493 8.288C46.5346 8.20267 46.636 8.16 46.7533 8.16ZM50.4013 11.136V12.912H51.5213C51.7133 12.912 51.884 12.8427 52.0333 12.704C52.1826 12.5547 52.2573 12.3467 52.2573 12.08C52.2573 11.8133 52.1986 11.5893 52.0813 11.408C51.964 11.2267 51.7773 11.136 51.5213 11.136H50.4013Z" fill="#262626"/>
<path d="M58.3984 15.936H59.9984C60.5317 15.936 60.8251 15.8613 60.8784 15.712L57.1504 8.656C57.1397 8.624 57.1344 8.58667 57.1344 8.544C57.1771 8.288 57.3104 8.16 57.5344 8.16H60.8784C61.1024 8.16 61.2731 8.288 61.3904 8.544L62.8784 11.696L64.0624 8.544C64.1691 8.288 64.3504 8.16 64.6064 8.16H67.9184C68.0144 8.16 68.0997 8.19733 68.1744 8.272C68.2491 8.336 68.2864 8.41067 68.2864 8.496C68.2864 8.58133 68.2811 8.63467 68.2704 8.656L65.0864 16.096C64.5317 17.3973 63.9451 18.2667 63.3264 18.704C62.7184 19.1413 61.7424 19.36 60.3984 19.36H58.3984C58.2811 19.36 58.1797 19.3173 58.0944 19.232C58.0091 19.1467 57.9664 19.0453 57.9664 18.928V16.368C57.9664 16.2507 58.0091 16.1493 58.0944 16.064C58.1797 15.9787 58.2811 15.936 58.3984 15.936Z" fill="#262626"/>
<path d="M75.207 11.84C75.207 11.36 74.8657 11.12 74.183 11.12C73.7884 11.12 73.543 11.1573 73.447 11.232C73.3617 11.296 73.255 11.392 73.127 11.52C73.0097 11.6373 72.855 11.696 72.663 11.696H69.447C69.351 11.696 69.2657 11.664 69.191 11.6C69.127 11.5253 69.095 11.3973 69.095 11.216C69.095 11.0347 69.1484 10.8 69.255 10.512C69.3617 10.224 69.543 9.93067 69.799 9.632C70.055 9.32267 70.3697 9.05067 70.743 8.816C71.1164 8.58133 71.6017 8.38933 72.199 8.24C72.807 8.08 73.479 8 74.215 8C75.7084 8 76.9404 8.34133 77.911 9.024C78.8817 9.696 79.367 10.544 79.367 11.568C79.367 12.5813 78.8764 13.3333 77.895 13.824C78.9297 14.2613 79.447 14.9867 79.447 16C79.447 17.0027 78.951 17.84 77.959 18.512C76.967 19.184 75.719 19.52 74.215 19.52C73.3084 19.52 72.4977 19.408 71.783 19.184C71.079 18.96 70.535 18.6773 70.151 18.336C69.3937 17.6427 69.015 16.9333 69.015 16.208C69.015 16.112 69.047 16.032 69.111 15.968C69.1857 15.8933 69.271 15.856 69.367 15.856H72.583C72.775 15.856 72.967 15.952 73.159 16.144C73.351 16.336 73.6924 16.432 74.183 16.432C74.919 16.432 75.287 16.1973 75.287 15.728C75.287 15.376 74.9137 15.2 74.167 15.2H72.551C72.4337 15.2 72.3324 15.152 72.247 15.056C72.1617 14.96 72.119 14.8533 72.119 14.736V12.816C72.119 12.6987 72.1617 12.592 72.247 12.496C72.3324 12.4 72.4337 12.352 72.551 12.352H74.167C74.551 12.352 74.8177 12.3147 74.967 12.24C75.127 12.1653 75.207 12.032 75.207 11.84Z" fill="#262626"/>
<path d="M83.082 8.16H91.85C91.9674 8.16 92.0687 8.20267 92.154 8.288C92.2394 8.37333 92.282 8.47467 92.282 8.592V15.84H92.97C93.0874 15.84 93.1887 15.8827 93.274 15.968C93.3594 16.0533 93.402 16.1547 93.402 16.272V20.896C93.402 21.0133 93.3594 21.1147 93.274 21.2C93.1887 21.2853 93.0874 21.328 92.97 21.328H89.834C89.7167 21.328 89.6154 21.2853 89.53 21.2C89.4447 21.1147 89.402 21.0133 89.402 20.896V19.36H85.05V20.896C85.05 21.0133 85.0074 21.1147 84.922 21.2C84.8367 21.2853 84.7354 21.328 84.618 21.328H81.482C81.3647 21.328 81.2634 21.2853 81.178 21.2C81.0927 21.1253 81.05 21.024 81.05 20.896V16.272C81.05 16.1547 81.0927 16.0533 81.178 15.968C81.2634 15.8827 81.3647 15.84 81.482 15.84H81.546C81.866 15.84 82.1274 15.7333 82.33 15.52C82.5434 15.3067 82.65 15.0027 82.65 14.608V8.592C82.65 8.47467 82.6927 8.37333 82.778 8.288C82.8634 8.20267 82.9647 8.16 83.082 8.16ZM88.282 11.68H86.65V14.624C86.65 15.2213 86.602 15.6267 86.506 15.84H88.282V11.68Z" fill="#262626"/>
<path d="M99.0832 16.24H104.011C104.128 16.24 104.23 16.2827 104.315 16.368C104.4 16.4533 104.443 16.5547 104.443 16.672V18.928C104.443 19.0453 104.4 19.1467 104.315 19.232C104.23 19.3173 104.128 19.36 104.011 19.36H95.6752C95.5578 19.36 95.4565 19.3173 95.3712 19.232C95.2858 19.1467 95.2432 19.0453 95.2432 18.928V8.592C95.2432 8.47467 95.2858 8.37333 95.3712 8.288C95.4565 8.20267 95.5578 8.16 95.6752 8.16H103.883C104 8.16 104.102 8.20267 104.187 8.288C104.272 8.37333 104.315 8.47467 104.315 8.592V10.848C104.315 10.9653 104.272 11.0667 104.187 11.152C104.102 11.2373 104 11.28 103.883 11.28H99.0832V12.288H103.531C103.648 12.288 103.75 12.3307 103.835 12.416C103.921 12.5013 103.963 12.6027 103.963 12.72V14.8C103.963 14.9173 103.921 15.0187 103.835 15.104C103.75 15.1893 103.648 15.232 103.531 15.232H99.0832V16.24Z" fill="#262626"/>
<path d="M106.24 8.16H115.616C115.733 8.16 115.835 8.20267 115.92 8.288C116.006 8.37333 116.048 8.47467 116.048 8.592V11.168C116.048 11.2853 116.006 11.3867 115.92 11.472C115.835 11.5573 115.733 11.6 115.616 11.6H112.96V18.928C112.96 19.0453 112.917 19.1467 112.832 19.232C112.747 19.3173 112.645 19.36 112.528 19.36H109.328C109.211 19.36 109.109 19.3173 109.024 19.232C108.939 19.1467 108.896 19.0453 108.896 18.928V11.6H106.24C106.123 11.6 106.021 11.5573 105.936 11.472C105.851 11.3867 105.808 11.2853 105.808 11.168V8.592C105.808 8.47467 105.851 8.37333 105.936 8.288C106.021 8.20267 106.123 8.16 106.24 8.16Z" fill="#262626"/>
<path d="M121.075 8.16H124.547C124.931 8.16 125.171 8.336 125.267 8.688L128.835 18.896C128.846 18.928 128.851 18.9813 128.851 19.056C128.851 19.12 128.814 19.1893 128.739 19.264C128.675 19.328 128.595 19.36 128.499 19.36H125.539C125.219 19.36 125.011 19.2267 124.915 18.96L124.531 17.904H121.091L120.707 18.96C120.611 19.2267 120.403 19.36 120.083 19.36H117.123C117.027 19.36 116.942 19.328 116.867 19.264C116.803 19.1893 116.771 19.12 116.771 19.056C116.771 18.9813 116.777 18.928 116.787 18.896L120.355 8.688C120.451 8.336 120.691 8.16 121.075 8.16ZM121.907 14.784H123.715L122.803 11.808L121.907 14.784Z" fill="#262626"/>
<path d="M129.862 19.52C129.744 19.52 129.638 19.4773 129.542 19.392C129.456 19.3067 129.414 19.2053 129.414 19.088V16.736C129.414 16.6187 129.456 16.5173 129.542 16.432C129.627 16.3467 129.728 16.304 129.846 16.304C130.635 16.304 131.03 15.8933 131.03 15.072V8.592C131.03 8.47467 131.072 8.37333 131.158 8.288C131.243 8.20267 131.344 8.16 131.462 8.16H140.55C140.667 8.16 140.768 8.20267 140.854 8.288C140.939 8.37333 140.982 8.47467 140.982 8.592V18.928C140.982 19.0453 140.939 19.1467 140.854 19.232C140.768 19.3173 140.667 19.36 140.55 19.36H137.414C137.296 19.36 137.195 19.3173 137.11 19.232C137.024 19.1467 136.982 19.0453 136.982 18.928V11.68H135.03V15.024C135.03 16.5173 134.566 17.6427 133.638 18.4C132.71 19.1467 131.451 19.52 129.862 19.52Z" fill="#262626"/>
<path d="M143.488 8.16H146.384C146.501 8.16 146.602 8.20267 146.688 8.288C146.773 8.37333 146.816 8.47467 146.816 8.592V12.96L149.52 8.528C149.658 8.28267 149.877 8.16 150.176 8.16H152.704C152.821 8.16 152.922 8.20267 153.008 8.288C153.093 8.37333 153.136 8.47467 153.136 8.592V18.928C153.136 19.0453 153.093 19.1467 153.008 19.232C152.922 19.3173 152.821 19.36 152.704 19.36H149.808C149.69 19.36 149.589 19.3173 149.504 19.232C149.418 19.1467 149.376 19.0453 149.376 18.928V14.912L146.672 18.992C146.512 19.2373 146.293 19.36 146.016 19.36H143.488C143.37 19.36 143.269 19.3173 143.184 19.232C143.098 19.1467 143.056 19.0453 143.056 18.928V8.592C143.056 8.47467 143.098 8.37333 143.184 8.288C143.269 8.20267 143.37 8.16 143.488 8.16Z" fill="#262626"/>
<path d="M155.564 15.712H158.348C158.465 15.712 158.567 15.7547 158.652 15.84C158.737 15.9253 158.78 16.0267 158.78 16.144V18.928C158.78 19.0453 158.737 19.1467 158.652 19.232C158.567 19.3173 158.465 19.36 158.348 19.36H155.564C155.447 19.36 155.345 19.3173 155.26 19.232C155.175 19.1467 155.132 19.0453 155.132 18.928V16.144C155.132 16.0267 155.175 15.9253 155.26 15.84C155.345 15.7547 155.447 15.712 155.564 15.712Z" fill="#262626"/>
<path d="M166.598 12.16C166.716 12.0213 166.774 11.856 166.774 11.664C166.774 11.472 166.716 11.3013 166.598 11.152C166.492 10.992 166.332 10.912 166.118 10.912H164.774V12.368H166.118C166.332 12.368 166.492 12.2987 166.598 12.16ZM164.774 15.04V16.608H166.262C166.508 16.608 166.689 16.528 166.806 16.368C166.934 16.1973 166.998 16.0107 166.998 15.808V15.792C166.998 15.5893 166.929 15.4133 166.79 15.264C166.662 15.1147 166.486 15.04 166.262 15.04H164.774ZM166.678 19.36H161.206C161.089 19.36 160.988 19.3173 160.902 19.232C160.817 19.1467 160.774 19.0453 160.774 18.928V8.592C160.774 8.47467 160.817 8.37333 160.902 8.288C160.988 8.20267 161.089 8.16 161.206 8.16H166.518C168.033 8.16 169.148 8.43733 169.862 8.992C170.588 9.536 170.95 10.3627 170.95 11.472V11.52C170.95 11.9787 170.817 12.3893 170.55 12.752C170.284 13.104 169.99 13.36 169.67 13.52C170.097 13.6907 170.454 13.9947 170.742 14.432C171.041 14.8587 171.19 15.328 171.19 15.84C171.19 18.1867 169.686 19.36 166.678 19.36Z" fill="#262626"/>
<path d="M176.564 19.36H173.3C173.183 19.36 173.081 19.3173 172.996 19.232C172.911 19.1467 172.868 19.0453 172.868 18.928V8.592C172.868 8.47467 172.911 8.37333 172.996 8.288C173.081 8.20267 173.183 8.16 173.3 8.16H176.564C176.682 8.16 176.783 8.20267 176.868 8.288C176.953 8.37333 176.996 8.47467 176.996 8.592V18.928C176.996 19.0453 176.953 19.1467 176.868 19.232C176.783 19.3173 176.682 19.36 176.564 19.36Z" fill="#262626"/>
<path d="M188.319 16.08C188.437 16.08 188.538 16.1227 188.623 16.208C188.709 16.2933 188.751 16.3947 188.751 16.512V18.928C188.751 19.0453 188.709 19.1467 188.623 19.232C188.538 19.3173 188.437 19.36 188.319 19.36H179.183C179.066 19.36 178.965 19.3173 178.879 19.232C178.794 19.1467 178.751 19.0453 178.751 18.928V16.624C178.751 16.4107 178.831 16.224 178.991 16.064L183.471 11.408H179.263C179.146 11.408 179.045 11.3653 178.959 11.28C178.874 11.1947 178.831 11.0933 178.831 10.976V8.592C178.831 8.47467 178.874 8.37333 178.959 8.288C179.045 8.20267 179.146 8.16 179.263 8.16H188.111C188.229 8.16 188.33 8.20267 188.415 8.288C188.501 8.37333 188.543 8.47467 188.543 8.592V10.864C188.543 11.0773 188.474 11.2533 188.335 11.392L184.095 16.08H188.319Z" fill="#262626"/>
<defs>
<clipPath id="clip0">
<rect width="26" height="26" fill="white"/>
</clipPath>
</defs>
</svg>
