<?xml version="1.0" encoding="utf-8"?><svg width="189" height="167" viewBox="0 0 189 167" xmlns="http://www.w3.org/2000/svg" xmlns:xlink="http://www.w3.org/1999/xlink"><svg width="22" height="23" fill="none" viewBox="-5 -5 22 23" id="about" x="144" xmlns="http://www.w3.org/2000/svg"><path d="M10.731 0H4.427c-.702 0-1.27.584-1.27 1.306v3.665L.187 7.988a.668.668 0 00-.14.709c.048.119.129.22.233.293.103.071.226.11.35.11v3.25a.66.66 0 00.186.46c.118.121.279.19.446.19h10.106a.623.623 0 00.447-.19.66.66 0 00.185-.46V1.306C12 .584 11.433 0 10.731 0zM5.635 8.522V11.7h-3.74V8.08L3.78 6.165l1.854 1.952v.406zM6.947 4.55H5.684v-1.3h1.263v1.3zm2.527 5.2H8.21v-1.3h1.264v1.3zm0-2.6H8.21v-1.3h1.264v1.3zm0-2.6H8.21v-1.3h1.264v1.3z" fill="#656565"/><path d="M3 8h1v1H3V8z" fill="#656565"/></svg><svg width="24" height="16" fill="none" viewBox="-5 -5 24 16" id="arrow-right-menu" y="108" xmlns="http://www.w3.org/2000/svg"><path fill="#2F2F2F" d="M0 2h12v2H0z"/><path d="M14 3l-3 2.598V.402L14 3z" fill="#2F2F2F"/></svg><svg width="24" height="16" fill="none" viewBox="-5 -5 24 16" id="arrow-right-menu-hover" x="24" y="108" xmlns="http://www.w3.org/2000/svg"><path fill="#2F89D2" d="M0 2h12v2H0z"/><path d="M14 3l-3 2.598V.402L14 3z" fill="#2F89D2"/></svg><svg width="23" height="23" fill="none" viewBox="-5 -5 23 23" id="axis" y="124" xmlns="http://www.w3.org/2000/svg"><path d="M11.695 1.016c.465.466.465 1.22 0 1.686L2.7 11.695a1.192 1.192 0 11-1.686-1.686l8.993-8.993a1.192 1.192 0 011.687 0z" fill="#838383"/><path d="M11.695 11.695a1.192 1.192 0 01-1.687 0L1.015 2.702a1.192 1.192 0 011.686-1.686l8.994 8.993c.465.466.465 1.22 0 1.686z" fill="#838383"/></svg><svg width="23" height="23" fill="none" viewBox="-5 -5 23 23" id="axis-w" x="23" y="124" xmlns="http://www.w3.org/2000/svg"><path d="M11.695 1.016c.465.466.465 1.22 0 1.686L2.7 11.695a1.192 1.192 0 11-1.686-1.686l8.993-8.993a1.192 1.192 0 011.687 0z" fill="#fff"/><path d="M11.695 11.695a1.192 1.192 0 01-1.687 0L1.015 2.702a1.192 1.192 0 011.686-1.686l8.994 8.993c.465.466.465 1.22 0 1.686z" fill="#fff"/></svg><svg width="40" height="34" fill="none" viewBox="-5 -5 40 34" id="bigmail" y="43" xmlns="http://www.w3.org/2000/svg"><path d="M25.5 0h-21A4.5 4.5 0 000 4.5v15A4.5 4.5 0 004.5 24h21a4.5 4.5 0 004.5-4.5v-15A4.5 4.5 0 0025.5 0zm-21 3h21A1.5 1.5 0 0127 4.5l-12 7.32L3 4.5A1.5 1.5 0 014.5 3zM27 19.5a1.5 1.5 0 01-1.5 1.5h-21A1.5 1.5 0 013 19.5V7.92l11.22 6.855a1.5 1.5 0 001.5 0L27 7.92V19.5z" fill="#838383"/></svg><svg width="23" height="23" fill="none" viewBox="-5 -5 23 23" id="btn-cart" x="46" y="124" xmlns="http://www.w3.org/2000/svg"><path d="M12.331 9.09H3.245a.649.649 0 010-1.3h6.776a1.947 1.947 0 001.888-1.473l1.071-4.213a.649.649 0 00-.353-.746.649.649 0 00-.296-.06H3.09A1.948 1.948 0 001.26 0H.65a.649.649 0 000 1.298h.61a.649.649 0 01.65.494l.038.312L3.07 6.492a1.949 1.949 0 00.175 3.896h.117a1.948 1.948 0 003.424 1.782 1.948 1.948 0 00.236-1.782h1.532a1.948 1.948 0 103.66 0h.117a.649.649 0 000-1.299zm-.83-6.493l-.85 3.402a.649.649 0 01-.65.493h-5.6l-.974-3.895H11.5zm-6.309 9.09a.648.648 0 110-1.298.648.648 0 010 1.297zm5.192 0a.648.648 0 110-1.297.648.648 0 010 1.296z" fill="#2F89D2"/></svg><svg width="31" height="31" fill="none" viewBox="-5 -5 31 31" id="cart-big" y="77" xmlns="http://www.w3.org/2000/svg"><path d="M19.92 14.683H5.241a1.049 1.049 0 010-2.098h10.945a3.145 3.145 0 003.05-2.38l1.73-6.807a1.049 1.049 0 00-.188-.902 1.049 1.049 0 00-.86-.398H4.99A3.146 3.146 0 002.034 0h-.986a1.048 1.048 0 000 2.098h.986a1.048 1.048 0 011.048.797l.063.503 1.814 7.09a3.148 3.148 0 00-3.004 3.287 3.15 3.15 0 003.287 3.005h.189a3.147 3.147 0 004.408 3.865 3.145 3.145 0 001.505-3.865h2.474A3.148 3.148 0 0016.774 21a3.144 3.144 0 003.118-2.733 3.148 3.148 0 00-.161-1.487h.188a1.048 1.048 0 100-2.097zM18.576 4.195l-1.373 5.496a1.049 1.049 0 01-1.048.797H7.108L5.536 4.195h13.042zM8.388 18.878a1.048 1.048 0 110-2.096 1.048 1.048 0 010 2.096zm8.387 0a1.048 1.048 0 110-2.095 1.048 1.048 0 010 2.095z" fill="#fff"/></svg><svg width="37" height="37" fill="none" viewBox="-5 -5 37 37" id="cart-blue" x="82" xmlns="http://www.w3.org/2000/svg"><path d="M25.61 18.878H6.74a1.348 1.348 0 010-2.697h14.072a4.043 4.043 0 003.922-3.06l2.225-8.752a1.348 1.348 0 00-.243-1.16 1.348 1.348 0 00-1.105-.512H6.416A4.045 4.045 0 002.615 0H1.348a1.348 1.348 0 000 2.697h1.267a1.348 1.348 0 011.348 1.025l.08.647 2.333 9.115a4.047 4.047 0 00-3.862 4.227 4.05 4.05 0 004.226 3.864h.242A4.047 4.047 0 0010.783 27a4.043 4.043 0 003.802-5.425h3.18A4.047 4.047 0 0021.568 27a4.043 4.043 0 003.801-5.425h.243a1.347 1.347 0 100-2.697zM23.886 5.394l-1.766 7.065a1.349 1.349 0 01-1.347 1.025H9.139l-2.022-8.09h16.768zM10.783 24.27a1.347 1.347 0 01-.953-2.301 1.348 1.348 0 11.953 2.302zm10.784 0a1.348 1.348 0 110-2.695 1.348 1.348 0 010 2.695z" fill="#2F89D2"/></svg><svg width="23" height="23" fill="none" viewBox="-5 -5 23 23" id="cart-vsm" x="69" y="124" xmlns="http://www.w3.org/2000/svg"><path d="M12.331 9.09H3.245a.649.649 0 010-1.3h6.776a1.947 1.947 0 001.888-1.473l1.071-4.213a.649.649 0 00-.353-.746.649.649 0 00-.296-.06H3.09A1.948 1.948 0 001.26 0H.65a.649.649 0 000 1.298h.61a.649.649 0 01.65.494l.038.312L3.07 6.492a1.949 1.949 0 00.175 3.896h.117a1.948 1.948 0 003.424 1.782 1.948 1.948 0 00.236-1.782h1.532a1.948 1.948 0 103.66 0h.117a.649.649 0 000-1.299zm-.83-6.493l-.85 3.402a.649.649 0 01-.65.493h-5.6l-.974-3.895H11.5zm-6.309 9.09a.648.648 0 110-1.298.648.648 0 010 1.297zm5.192 0a.648.648 0 110-1.297.648.648 0 010 1.296z" fill="#fff"/></svg><svg width="23" height="23" fill="none" viewBox="-5 -5 23 23" id="cart-white" x="92" y="124" xmlns="http://www.w3.org/2000/svg"><path d="M12.331 9.09H3.245a.649.649 0 010-1.3h6.776a1.947 1.947 0 001.888-1.473l1.071-4.213a.649.649 0 00-.353-.746.649.649 0 00-.296-.06H3.09A1.948 1.948 0 001.26 0H.65a.649.649 0 000 1.298h.61a.649.649 0 01.65.494l.038.312L3.07 6.492a1.949 1.949 0 00.175 3.896h.117a1.948 1.948 0 003.424 1.782 1.948 1.948 0 00.236-1.782h1.532a1.948 1.948 0 103.66 0h.117a.649.649 0 000-1.299zm-.83-6.493l-.85 3.402a.649.649 0 01-.65.493h-5.6l-.974-3.895H11.5zm-6.309 9.09a.648.648 0 110-1.298.648.648 0 010 1.297zm5.192 0a.648.648 0 110-1.297.648.648 0 010 1.296z" fill="#fff"/></svg><svg width="31" height="31" fill="none" viewBox="-5 -5 31 31" id="cart-white-2121" x="31" y="77" xmlns="http://www.w3.org/2000/svg"><path d="M19.92 14.683H5.241a1.049 1.049 0 010-2.098h10.945a3.145 3.145 0 003.05-2.38l1.73-6.807a1.049 1.049 0 00-.188-.902 1.049 1.049 0 00-.86-.398H4.99A3.146 3.146 0 002.034 0h-.986a1.048 1.048 0 000 2.098h.986a1.048 1.048 0 011.048.797l.063.503 1.814 7.09a3.148 3.148 0 00-3.004 3.287 3.15 3.15 0 003.287 3.005h.189a3.147 3.147 0 004.408 3.865 3.145 3.145 0 001.505-3.865h2.474A3.148 3.148 0 0016.774 21a3.144 3.144 0 003.118-2.733 3.148 3.148 0 00-.161-1.487h.188a1.048 1.048 0 100-2.097zM18.576 4.195l-1.373 5.496a1.049 1.049 0 01-1.048.797H7.108L5.536 4.195h13.042zM8.388 18.878a1.048 1.048 0 110-2.096 1.048 1.048 0 010 2.096zm8.387 0a1.048 1.048 0 110-2.095 1.048 1.048 0 010 2.095z" fill="#fff"/></svg><svg width="16" height="20" fill="none" viewBox="-5 -5 16 20" id="chevron" x="166" y="125" xmlns="http://www.w3.org/2000/svg"><path d="M1 9l4-4-4-4" stroke="#fff"/></svg><svg width="20" height="17" fill="none" viewBox="-5 -5 20 17" id="chevron-b-down" x="144" y="92" xmlns="http://www.w3.org/2000/svg"><path d="M1.447 1.04a.75.75 0 10-1.06 1.061l1.06-1.06zm8 1.061a.75.75 0 00-1.06-1.06l1.06 1.06zm-4.53 3.47l-.53.53a.75.75 0 001.06 0l-.53-.53zM.387 2.1l4 4 1.06-1.06-4-4L.387 2.1zm5.06 4l4-4-1.06-1.06-4 4 1.06 1.06z" fill="#2F89D2"/></svg><svg width="16" height="20" fill="none" viewBox="-5 -5 16 20" id="chevron-g" y="147" xmlns="http://www.w3.org/2000/svg"><path d="M1 9l4-4-4-4" stroke="#838383"/></svg><svg width="19" height="23" fill="none" viewBox="-5 -5 19 23" id="chevron-pg" x="144" y="23" xmlns="http://www.w3.org/2000/svg"><path d="M1 12l6-5.5L1 1" stroke="#838383" stroke-width="1.5"/></svg><svg width="19" height="23" fill="none" viewBox="-5 -5 19 23" id="chevron-pgw" x="144" y="46" xmlns="http://www.w3.org/2000/svg"><path d="M1 12l6-5.5L1 1" stroke="#fff" stroke-width="1.5"/></svg><svg width="19" height="23" fill="none" viewBox="-5 -5 19 23" id="chevron-w" x="144" y="69" xmlns="http://www.w3.org/2000/svg"><path d="M1 12l6-5.5L1 1" stroke="#fff" stroke-width="1.5"/></svg><svg width="25" height="23" fill="none" viewBox="-5 -5 25 23" id="contacts" x="119" xmlns="http://www.w3.org/2000/svg"><path d="M14.464 1.182h-2.678V.148c0-.082-.06-.148-.134-.148h-.938c-.073 0-.134.066-.134.148v1.034H8.103V.148c0-.082-.06-.148-.134-.148H7.03c-.073 0-.134.066-.134.148v1.034H4.42V.148C4.42.066 4.36 0 4.286 0h-.938c-.073 0-.134.066-.134.148v1.034H.536c-.297 0-.536.264-.536.59V12.41c0 .327.24.591.536.591h13.928c.297 0 .536-.264.536-.59V1.772c0-.327-.24-.591-.536-.591zm-4.47 9.454H9.26c-.07 0-.127-.06-.132-.138-.063-.935-.77-1.671-1.627-1.671s-1.564.738-1.627 1.67c-.005.078-.062.14-.132.14h-.735a.125.125 0 01-.098-.046.162.162 0 01-.037-.11c.048-.984.536-1.84 1.25-2.328a2.188 2.188 0 01-.488-1.394c0-1.144.836-2.069 1.865-2.069 1.03 0 1.865.925 1.865 2.069 0 .537-.184 1.024-.487 1.394.715.489 1.202 1.344 1.249 2.328.007.085-.054.155-.13.155zM7.5 5.798c-.477 0-.866.43-.866.96s.389.96.866.96.866-.43.866-.96-.389-.96-.866-.96z" fill="#656565"/></svg><svg width="25" height="23" fill="none" viewBox="-5 -5 25 23" id="credit-card" x="119" y="23" xmlns="http://www.w3.org/2000/svg"><path d="M13.5 0h-12C.667 0 .007.723.007 1.625L0 11.375C0 12.277.667 13 1.5 13h12c.832 0 1.5-.723 1.5-1.625v-9.75C15 .723 14.332 0 13.5 0zm0 11.375h-12V6.5h12v4.875zm0-8.125h-12V1.625h12V3.25z" fill="#656565"/></svg><svg width="28" height="23" fill="none" viewBox="-5 -5 28 23" id="delivery" x="62" y="77" xmlns="http://www.w3.org/2000/svg"><path d="M1.636 0C1.202 0 .786.171.48.476A1.62 1.62 0 000 1.625v8.938h1.636c0 .646.259 1.266.72 1.723a2.463 2.463 0 003.47 0c.46-.457.72-1.077.72-1.723h4.908c0 .646.26 1.266.72 1.723a2.463 2.463 0 003.47 0c.461-.457.72-1.077.72-1.723H18V6.5l-2.454-3.25H13.09V0H1.636zm11.455 4.469h2.045L16.748 6.5h-3.657V4.469zm-9 4.875c.325 0 .638.128.868.357a1.215 1.215 0 010 1.723 1.232 1.232 0 01-1.736 0 1.215 1.215 0 010-1.723c.23-.229.542-.357.868-.357zm9.818 0c.326 0 .638.128.868.357a1.214 1.214 0 010 1.723 1.232 1.232 0 01-1.736 0 1.214 1.214 0 010-1.723c.23-.229.543-.357.868-.357z" fill="#656565"/></svg><svg width="13" height="13" fill="none" viewBox="-5 -5 13 13" id="dot" x="48" y="108" xmlns="http://www.w3.org/2000/svg"><circle cx="1" cy="1" r="1" fill="#656565"/></svg><svg width="13" height="13" fill="none" viewBox="-5 -5 13 13" id="dotnew" x="61" y="108" xmlns="http://www.w3.org/2000/svg"><circle cx="1.018" cy="1.069" r="1" fill="#656565"/></svg><svg width="28" height="21" fill="none" viewBox="-5 -5 28 21" id="file" x="90" y="77" xmlns="http://www.w3.org/2000/svg"><path d="M12.884 9.878l-8.969.2c-1.348.03-2.378-.29-3.065-.949-.952-.913-.863-2.157-.834-2.396l.115-2.986C.174 2.613.6 1.716 1.396 1.085 2.516.198 3.967.182 4.224.193L12.963 0c.377-.008.665.275.651.63-.013.354-.326.65-.702.658L4.1 1.483c-.006 0-1.03-.029-1.73.534-.462.37-.71.94-.74 1.696l-.123 3.071c0 .006-.111.886.494 1.46.403.38 1.064.561 1.965.541l8.976-.198c.024-.002 1.853-.042 2.874-.908.435-.368.658-.835.681-1.427.076-1.979-1.7-2.212-3.63-2.17-1.369.03-5.34.049-5.514.05 0 0-2.487-.044-2.53 1.043-.026.701.84.99 2.63.952l5.305-.108c.366.001.649.28.635.628-.013.35-.318.641-.685.658l-5.304.113c-1.56.034-4.17.095-4.08-2.27.024-.612.286-1.161.817-1.534 1.072-.754 2.9-.788 3.234-.769.376-.003 4.25-.102 5.544-.131 3.463-.077 5.17 1.154 5.079 3.505-.038.943-.429 1.736-1.166 2.358-1.484 1.255-3.847 1.3-3.947 1.301z" fill="#fff"/></svg><svg width="23" height="23" fill="none" viewBox="-5 -5 23 23" id="frst" x="115" y="124" xmlns="http://www.w3.org/2000/svg"><path d="M5 12l6-5.5L5 1" stroke="#838383" stroke-width="1.5"/><path d="M.769 12l6-5.5-6-5.5" stroke="#838383" stroke-width="1.5"/></svg><svg width="23" height="23" fill="none" viewBox="-5 -5 23 23" id="frst-w" x="138" y="124" xmlns="http://www.w3.org/2000/svg"><path d="M5 12l6-5.5L5 1" stroke="#fff" stroke-width="1.5"/><path d="M.769 12l6-5.5-6-5.5" stroke="#fff" stroke-width="1.5"/></svg><svg width="41" height="43" fill="none" viewBox="-5 -5 41 43" id="graph-cat" xmlns="http://www.w3.org/2000/svg"><path d="M28.062.313H3.75a2.312 2.312 0 00-2.313 2.312V7.25H0v2.313h1.438v5.78H0v2.313h1.438v5.782H0v2.312h1.438v4.625a2.313 2.313 0 002.312 2.313h24.312a2.312 2.312 0 002.313-2.313V2.625A2.312 2.312 0 0028.062.312zm0 30.062H3.75V25.75H5v-2.313H3.75v-5.78H5v-2.313H3.75V9.563H5V7.25H3.75V2.625h24.312v27.75z"/><path d="M14.022 10.875h6.882v6.5h-4.301l-1.72-1.625h-1.721v-4.063l.86-.812zM13.162 6v1.625h2.58V9.25h-2.58l-1.721 1.625v2.438h-1.72v-2.438H8v6.5h1.72v-2.438h1.721v2.438h2.58L15.743 19h6.882v-4.063h1.147v3.25H25v-8.125h-1.229v3.25h-1.147V9.25h-5.161V7.625h2.58V6h-6.881zM7 22h18v2H7zM7 26h18v2H7z" fill="#"/></svg><svg width="41" height="43" fill="none" viewBox="-5 -5 41 43" id="graph-cat-w" x="41" xmlns="http://www.w3.org/2000/svg"><path d="M28.062.313H3.75a2.312 2.312 0 00-2.313 2.312V7.25H0v2.313h1.438v5.78H0v2.313h1.438v5.782H0v2.312h1.438v4.625a2.313 2.313 0 002.312 2.313h24.312a2.312 2.312 0 002.313-2.313V2.625A2.312 2.312 0 0028.062.312zm0 30.062H3.75V25.75H5v-2.313H3.75v-5.78H5v-2.313H3.75V9.563H5V7.25H3.75V2.625h24.312v27.75z" fill="#fff"/><path d="M14.022 10.875h6.882v6.5h-4.301l-1.72-1.625h-1.721v-4.063l.86-.812zM13.162 6v1.625h2.58V9.25h-2.58l-1.721 1.625v2.438h-1.72v-2.438H8v6.5h1.72v-2.438h1.721v2.438h2.58L15.743 19h6.882v-4.063h1.147v3.25H25v-8.125h-1.229v3.25h-1.147V9.25h-5.161V7.625h2.58V6h-6.881zM7 22h18v2H7zM7 26h18v2H7z" fill="#fff"/></svg><svg width="25" height="25" fill="none" viewBox="-5 -5 25 25" id="hd-cat" x="119" y="46" xmlns="http://www.w3.org/2000/svg"><path d="M1.25 2.5h12.5a1.25 1.25 0 000-2.5H1.25a1.25 1.25 0 100 2.5zm12.5 10H1.25a1.25 1.25 0 000 2.5h12.5a1.25 1.25 0 000-2.5zm0-6.25H1.25a1.25 1.25 0 000 2.5h12.5a1.25 1.25 0 000-2.5z" fill="#fff"/></svg><svg width="22" height="18" fill="none" viewBox="-5 -5 22 18" id="mail" x="166" y="23" xmlns="http://www.w3.org/2000/svg"><path d="M11.563 0H.436L6 3.219 11.563 0zM6.329 4.59a.654.654 0 01-.658 0L0 1.31V8h12V1.31L6.329 4.59z" fill="#838383"/></svg><svg width="40" height="34" fill="none" viewBox="-5 -5 40 34" id="mail-blue" x="40" y="43" xmlns="http://www.w3.org/2000/svg"><path d="M25.5 0h-21A4.5 4.5 0 000 4.5v15A4.5 4.5 0 004.5 24h21a4.5 4.5 0 004.5-4.5v-15A4.5 4.5 0 0025.5 0zm-21 3h21A1.5 1.5 0 0127 4.5l-12 7.32L3 4.5A1.5 1.5 0 014.5 3zM27 19.5a1.5 1.5 0 01-1.5 1.5h-21A1.5 1.5 0 013 19.5V7.92l11.22 6.855a1.5 1.5 0 001.5 0L27 7.92V19.5z" fill="#2F89D2"/></svg><svg width="22" height="18" fill="none" viewBox="-5 -5 22 18" id="mail-white" x="166" y="41" xmlns="http://www.w3.org/2000/svg"><path d="M11.563 0H.436L6 3.219 11.563 0zM6.329 4.59a.654.654 0 01-.658 0L0 1.31V8h12V1.31L6.329 4.59z" fill="#fff"/></svg><svg width="18" height="12" fill="none" viewBox="-5 -5 18 12" id="minus" x="144" y="109" xmlns="http://www.w3.org/2000/svg"><rect x="8" width="2" height="8" rx="1" transform="rotate(90 8 0)" fill="#2F2F2F"/></svg><svg width="22" height="22" fill="none" viewBox="-5 -5 22 22" id="phone" x="166" y="59" xmlns="http://www.w3.org/2000/svg"><path d="M11.833 9.978l-1.692 1.679c-.25.256-.58.343-.903.343-1.425-.043-2.773-.743-3.88-1.462C3.542 9.217 1.876 7.578.83 5.598c-.401-.83-.872-1.89-.827-2.816.004-.349.098-.69.343-.915L2.038.176c.352-.3.691-.196.916.152L4.315 2.91a.75.75 0 01-.152.852l-.624.623a.306.306 0 00-.063.178c.239.925.963 1.778 1.603 2.365.64.587 1.327 1.382 2.22 1.57.11.031.245.042.324-.032l.725-.737c.25-.19.61-.282.877-.127h.013l2.455 1.45c.36.225.398.662.14.927z" fill="#838383"/></svg><svg width="34" height="34" fill="none" viewBox="-5 -5 34 34" id="phone-blue" x="82" y="37" xmlns="http://www.w3.org/2000/svg"><path d="M21.025 13.238c-.265 0-.542-.084-.807-.145a11.34 11.34 0 01-1.577-.47 2.403 2.403 0 00-2.987 1.207l-.265.544a14.676 14.676 0 01-3.204-2.416 14.71 14.71 0 01-2.408-3.213l.506-.338a2.422 2.422 0 001.204-2.995 12.497 12.497 0 01-.47-1.583 8.98 8.98 0 01-.144-.821A3.625 3.625 0 009.62.835 3.606 3.606 0 007.26 0H3.647A3.604 3.604 0 00.9 1.23a3.626 3.626 0 00-.866 2.89 22.975 22.975 0 006.549 13.36c3.602 3.601 8.299 5.895 13.346 6.52h.458A3.607 3.607 0 0024 20.364v-3.623a3.63 3.63 0 00-.862-2.286 3.61 3.61 0 00-2.113-1.217zm.602 7.247a1.21 1.21 0 01-.871 1.162c-.17.052-.35.067-.526.046a20.45 20.45 0 01-11.907-5.882 20.556 20.556 0 01-5.808-11.97 1.32 1.32 0 01.3-.99 1.205 1.205 0 01.904-.41h3.613a1.202 1.202 0 011.204.953c.049.33.109.657.181.979.14.636.324 1.262.554 1.872l-1.686.785a1.204 1.204 0 00-.701 1.147c.006.159.044.315.11.46a17.476 17.476 0 008.431 8.454c.293.121.622.121.915 0a1.202 1.202 0 00.687-.628l.747-1.69c.622.223 1.258.408 1.902.555.322.072.647.133.976.18a1.204 1.204 0 01.951 1.209l.024 3.768z" fill="#2F89D2"/></svg><svg width="22" height="22" fill="none" viewBox="-5 -5 22 22" id="phone-white" x="166" y="81" xmlns="http://www.w3.org/2000/svg"><path d="M11.833 9.978l-1.692 1.679c-.25.256-.58.343-.903.343-1.425-.043-2.773-.743-3.88-1.462C3.542 9.217 1.876 7.578.83 5.598c-.401-.83-.872-1.89-.827-2.816.004-.349.098-.69.343-.915L2.038.176c.352-.3.691-.196.916.152L4.315 2.91a.75.75 0 01-.152.852l-.624.623a.306.306 0 00-.063.178c.239.925.963 1.778 1.603 2.365.64.587 1.327 1.382 2.22 1.57.11.031.245.042.324-.032l.725-.737c.25-.19.61-.282.877-.127h.013l2.455 1.45c.36.225.398.662.14.927z" fill="#fff"/></svg><svg width="18" height="18" fill="none" viewBox="-5 -5 18 18" id="plus" x="16" y="147" xmlns="http://www.w3.org/2000/svg"><rect x="3" width="2" height="8" rx="1" fill="#2F2F2F"/><rect x="8" y="3" width="2" height="8" rx="1" transform="rotate(90 8 3)" fill="#2F2F2F"/></svg><svg width="18" height="22" fill="none" viewBox="-5 -5 18 22" id="pointer-white" x="166" y="103" xmlns="http://www.w3.org/2000/svg"><path d="M4 0C1.79 0 0 1.673 0 3.745 0 7.328 4 12 4 12s4-4.673 4-8.255C8 1.674 6.21 0 4 0zm0 5.817a2.234 2.234 0 01-1.527-.594 1.965 1.965 0 01-.633-1.432c0-.538.228-1.053.633-1.433.405-.38.954-.594 1.527-.594s1.122.214 1.527.594c.405.38.633.895.633 1.433 0 .537-.228 1.052-.633 1.432-.405.38-.954.594-1.527.594z" fill="#fff"/></svg><svg width="25" height="25" fill="none" viewBox="-5 -5 25 25" id="quanity" x="119" y="71" xmlns="http://www.w3.org/2000/svg"><g clip-path="url(#bmclip0)" fill="#838383"><path d="M7.5 0a7.5 7.5 0 10.001 15.001A7.5 7.5 0 007.5 0zm0 13.728a6.229 6.229 0 010-12.456 6.229 6.229 0 010 12.456z"/><path d="M9.37 4.227a2.822 2.822 0 00-1.868-.682 2.83 2.83 0 00-1.869.682c-.522.457-.81 1.071-.81 1.729v.127c0 .074.06.134.134.134h.804c.073 0 .133-.06.133-.134v-.127c0-.738.722-1.34 1.608-1.34.885 0 1.607.602 1.607 1.34 0 .52-.369.998-.94 1.217a1.871 1.871 0 00-1.205 1.771v.36c0 .074.06.134.134.134h.804c.073 0 .134-.06.134-.134v-.38a.809.809 0 01.517-.75c.988-.38 1.625-1.25 1.625-2.218.002-.658-.286-1.272-.808-1.73zm-2.538 6.952a.67.67 0 101.34 0 .67.67 0 00-1.34 0z"/></g><defs><clipPath id="bmclip0"><path fill="#fff" d="M0 0h15v15H0z"/></clipPath></defs></svg><svg width="23" height="23" fill="none" viewBox="-5 -5 23 23" id="viber" x="166" xmlns="http://www.w3.org/2000/svg"><path fill-rule="evenodd" clip-rule="evenodd" d="M3.525 5.046a1.657 1.657 0 01.169-.863c.04-.107.097-.207.167-.297a1.21 1.21 0 01.486-.387s.575-.056.624.02c.267.461.49.945.666 1.447.087.327-.374.702-.374.702s-.293.148 0 .516c.218.275.589.753.811.93.235.191.486.364.749.516.543.3.645.268.645.268s.1.041.373-.33c.146-.197.306-.428.458-.475.176-.054 1.596.759 1.54.702.099.1.02.42.02.42s.031.358-.51.771c-.356.273-.946.338-.946.338a3.62 3.62 0 01-1.082-.248c-.576-.216-1.185-.398-1.975-1.115a7.972 7.972 0 01-1.417-1.695c-.416-.714-.404-1.22-.404-1.22zm3.1 7.665a6.38 6.38 0 01-3.144-.823L0 13l1.144-3.386a6.336 6.336 0 01.916-7.702A6.4 6.4 0 019.768.827 6.364 6.364 0 0112.5 3.89a6.334 6.334 0 01.29 4.086 6.355 6.355 0 01-2.274 3.413 6.395 6.395 0 01-3.891 1.323zm-.01-11.629a5.34 5.34 0 00-2.78.768 5.313 5.313 0 00-1.969 2.097 5.289 5.289 0 00.39 5.517l-.508 1.533.002.001-.148.432.86-.254a.024.024 0 00-.004-.005l1.181-.37a5.347 5.347 0 006.841-.73 5.31 5.31 0 001.402-4.58 5.304 5.304 0 00-.973-2.261 5.33 5.33 0 00-4.295-2.148z" fill="#838383"/></svg></svg>